<svg width="512" height="512" viewBox="0 0 512 512" fill="none" xmlns="http://www.w3.org/2000/svg">
<path d="M73 18H83C116.137 18 143 44.8629 143 78V468H133C99.8629 468 73 441.137 73 408V18Z" fill="url(#paint0_linear_114_198)" style="mix-blend-mode:multiply"/>
<path d="M418 476.262H408C374.863 476.262 348 449.399 348 416.262V26.2621H358C391.137 26.2621 418 53.125 418 86.2621V476.262Z" fill="url(#paint1_linear_114_198)" style="mix-blend-mode:multiply"/>
<path d="M165 257H200C202.761 257 205 259.239 205 262V417C205 439.091 187.091 457 165 457V457V257Z" fill="url(#paint2_linear_114_198)"/>
<path d="M326 237.262H291C288.239 237.262 286 235.024 286 232.262V77.2621C286 55.1707 303.909 37.2621 326 37.2621V37.2621V237.262Z" fill="url(#paint3_linear_114_198)"/>
<path d="M292.632 260.276C278.211 271.881 263.107 277.684 247.32 277.684C231.533 277.684 216.429 271.881 202.008 260.276C201.069 259.508 200.6 258.825 200.6 258.228C200.6 257.46 201.069 257.076 202.008 257.076C202.264 257.076 202.648 257.161 203.16 257.332C203.331 257.417 204.269 257.844 205.976 258.612C207.683 259.38 208.792 259.849 209.304 260.02C209.901 260.276 211.053 260.745 212.76 261.428C214.552 262.111 215.96 262.58 216.984 262.836C218.008 263.177 219.459 263.604 221.336 264.116C223.299 264.628 225.133 265.012 226.84 265.268C228.547 265.524 230.509 265.78 232.728 266.036C234.947 266.377 237.251 266.591 239.64 266.676C242.115 266.847 244.675 266.932 247.32 266.932C250.733 266.932 253.933 266.847 256.92 266.676C259.992 266.505 262.851 266.164 265.496 265.652C268.227 265.14 270.488 264.713 272.28 264.372C274.072 264.031 276.12 263.433 278.424 262.58C280.813 261.727 282.392 261.129 283.16 260.788C284.013 260.532 285.549 259.892 287.768 258.868C290.072 257.929 291.309 257.417 291.48 257.332C291.992 257.161 292.376 257.076 292.632 257.076C293.571 257.076 294.04 257.46 294.04 258.228C294.04 258.825 293.571 259.508 292.632 260.276Z" fill="#0101A1"/>
<path d="M198.368 233.986C212.789 222.381 227.893 216.578 243.68 216.578C259.467 216.578 274.571 222.381 288.992 233.986C289.931 234.754 290.4 235.437 290.4 236.034C290.4 236.802 289.931 237.186 288.992 237.186C288.736 237.186 288.352 237.101 287.84 236.93C287.669 236.845 286.731 236.418 285.024 235.65C283.317 234.882 282.208 234.413 281.696 234.242C281.099 233.986 279.947 233.517 278.24 232.834C276.448 232.151 275.04 231.682 274.016 231.426C272.992 231.085 271.541 230.658 269.664 230.146C267.701 229.634 265.867 229.25 264.16 228.994C262.453 228.738 260.491 228.482 258.272 228.226C256.053 227.885 253.749 227.671 251.36 227.586C248.885 227.415 246.325 227.33 243.68 227.33C240.267 227.33 237.067 227.415 234.08 227.586C231.008 227.757 228.149 228.098 225.504 228.61C222.773 229.122 220.512 229.549 218.72 229.89C216.928 230.231 214.88 230.829 212.576 231.682C210.187 232.535 208.608 233.133 207.84 233.474C206.987 233.73 205.451 234.37 203.232 235.394C200.928 236.333 199.691 236.845 199.52 236.93C199.008 237.101 198.624 237.186 198.368 237.186C197.429 237.186 196.96 236.802 196.96 236.034C196.96 235.437 197.429 234.754 198.368 233.986Z" fill="#0101A1"/>
<path d="M298.242 271.371C299.13 265.655 298.34 260.661 295.873 256.388C293.407 252.116 289.476 248.935 284.082 246.845C283.728 246.711 283.47 246.691 283.308 246.784C283.1 246.904 283.07 247.091 283.216 247.345C283.256 247.415 283.339 247.505 283.465 247.617C283.515 247.65 283.777 247.837 284.252 248.179C284.726 248.521 285.027 248.748 285.153 248.86C285.316 248.981 285.623 249.22 286.074 249.575C286.539 249.953 286.886 250.261 287.115 250.498C287.367 250.722 287.71 251.048 288.141 251.476C288.587 251.927 288.977 252.364 289.313 252.786C289.649 253.207 290.025 253.699 290.441 254.259C290.88 254.806 291.298 255.396 291.694 256.03C292.127 256.673 292.55 257.352 292.964 258.068C293.497 258.992 293.974 259.871 294.394 260.706C294.828 261.564 295.182 262.391 295.457 263.187C295.745 264.006 295.983 264.685 296.171 265.223C296.358 265.761 296.517 266.409 296.646 267.166C296.788 267.946 296.873 268.466 296.901 268.728C296.965 268.999 297.032 269.514 297.101 270.275C297.207 271.045 297.262 271.46 297.265 271.519C297.299 271.685 297.336 271.802 297.376 271.871C297.523 272.125 297.7 272.192 297.908 272.072C298.07 271.979 298.181 271.745 298.242 271.371Z" fill="#0101A1"/>
<path d="M152.42 471.321C163.849 469.306 175.301 462.997 186.776 452.396C192.367 447.25 194.978 443.627 194.607 441.526C194.474 440.77 193.945 440.473 193.021 440.636C192.937 440.651 192.63 440.879 192.101 441.319C191.656 441.744 190.932 442.305 189.928 443.001C188.925 443.698 187.864 444.318 186.747 444.862C182.698 446.962 177.199 449.189 170.248 451.541C163.313 453.977 156.525 455.78 149.886 456.951C143.247 458.121 136.253 458.748 128.902 458.831C121.566 458.998 115.637 458.787 111.114 458.198C109.878 458.07 108.67 457.849 107.488 457.538C106.307 457.226 105.434 456.947 104.871 456.7C104.223 456.467 103.858 456.358 103.773 456.373C102.849 456.536 102.454 456.996 102.587 457.752C102.972 459.937 106.672 462.491 113.686 465.413C127.912 471.397 140.823 473.366 152.42 471.321Z" fill="#0101F4"/>
<path d="M338.58 22.9412C327.151 24.9564 315.699 31.2649 304.224 41.8665C298.633 47.0116 296.022 50.6346 296.393 52.7356C296.526 53.4919 297.055 53.7886 297.979 53.6256C298.063 53.6107 298.37 53.3834 298.899 52.9435C299.344 52.5185 300.068 51.9575 301.072 51.2607C302.075 50.5638 303.136 49.9436 304.253 49.4C308.302 47.2997 313.801 45.0735 320.752 42.7215C327.687 40.2855 334.475 38.4821 341.114 37.3115C347.753 36.1409 354.747 35.5141 362.098 35.4311C369.434 35.264 375.363 35.4749 379.886 36.0638C381.122 36.1925 382.33 36.4126 383.512 36.7242C384.693 37.0358 385.566 37.3152 386.129 37.5625C386.777 37.7949 387.142 37.9037 387.227 37.8889C388.151 37.7259 388.546 37.2662 388.413 36.5099C388.028 34.3249 384.328 31.7712 377.314 28.8488C363.088 22.8655 350.177 20.8963 338.58 22.9412Z" fill="#0101F4"/>
<path d="M165.693 457.57C157.749 460.461 150.049 462.066 142.595 462.385C135.133 462.682 127.754 461.68 120.458 459.377L115.713 446.339C118.433 447.235 121.581 447.843 125.156 448.162C128.709 448.489 132.496 448.526 136.515 448.273C140.534 448.019 144.596 447.484 148.701 446.667C152.784 445.858 156.726 444.762 160.528 443.378C165.589 441.536 170.518 439.162 175.313 436.255C180.079 433.336 184.35 430.185 188.126 426.803C191.893 423.4 194.783 420.075 196.793 416.828L201.539 429.866C197.43 436.32 192.422 441.831 186.515 446.4C180.6 450.947 173.659 454.67 165.693 457.57Z" fill="#0101F4"/>
<path d="M325.307 38.6924C333.251 35.8008 340.951 34.1956 348.405 33.8769C355.867 33.5796 363.246 34.5823 370.542 36.8849L375.287 49.9232C372.567 49.0269 369.419 48.4191 365.844 48.0998C362.291 47.7727 358.504 47.7359 354.485 47.9895C350.466 48.2431 346.404 48.7783 342.299 49.595C338.216 50.404 334.274 51.5003 330.472 52.8839C325.411 54.7262 320.482 57.1004 315.687 60.0066C310.921 62.9265 306.65 66.0772 302.874 69.4588C299.107 72.8618 296.217 76.1869 294.207 79.4341L289.461 66.3958C293.57 59.9423 298.578 54.4312 304.485 49.8625C310.4 45.3152 317.341 41.5918 325.307 38.6924Z" fill="#0101F4"/>
<path d="M198 257H202.1C202.597 257 203 257.403 203 257.9V257.9H198V257Z" fill="#0101A1"/>
<path d="M293 237.262H288.9C288.403 237.262 288 236.859 288 236.362V236.362H293V237.262Z" fill="#0101A1"/>
<defs>
<linearGradient id="paint0_linear_114_198" x1="108" y1="468" x2="108" y2="18" gradientUnits="userSpaceOnUse">
<stop stop-color="#0000FF"/>
<stop offset="0.2" stop-color="#0000CC"/>
<stop offset="0.4" stop-color="#0000B3"/>
<stop offset="0.6" stop-color="#000080"/>
<stop offset="0.8" stop-color="#000066"/>
<stop offset="1" stop-color="#00004D"/>
</linearGradient>
<linearGradient id="paint1_linear_114_198" x1="383" y1="26.2621" x2="383" y2="476.262" gradientUnits="userSpaceOnUse">
<stop stop-color="#0000FF"/>
<stop offset="0.2" stop-color="#0000CC"/>
<stop offset="0.4" stop-color="#0000B3"/>
<stop offset="0.6" stop-color="#000080"/>
<stop offset="0.8" stop-color="#000066"/>
<stop offset="1" stop-color="#00004D"/>
</linearGradient>
<linearGradient id="paint2_linear_114_198" x1="185" y1="257" x2="185" y2="457" gradientUnits="userSpaceOnUse">
<stop stop-color="#0101A1"/>
<stop offset="0.5" stop-color="#0101C7"/>
<stop offset="0.73" stop-color="#0101F4"/>
</linearGradient>
<linearGradient id="paint3_linear_114_198" x1="306" y1="237.262" x2="306" y2="37.2621" gradientUnits="userSpaceOnUse">
<stop stop-color="#0101A1"/>
<stop offset="0.5" stop-color="#0101C7"/>
<stop offset="0.785" stop-color="#0101F4"/>
</linearGradient>
</defs>
</svg>
